<mxfile host="Electron" modified="2023-07-01T16:47:46.749Z" agent="Mozilla/5.0 (Windows NT 10.0; Win64; x64) AppleWebKit/537.36 (KHTML, like Gecko) draw.io/21.5.1 Chrome/112.0.5615.204 Electron/24.6.0 Safari/537.36" etag="shqITwpUPjH1odxG1kCk" version="21.5.1" type="device" pages="3">
  <diagram name="Home Page" id="CXcD1R_OlmT8ERgq10MY">
    <mxGraphModel dx="521" dy="613" grid="1" gridSize="10" guides="1" tooltips="1" connect="1" arrows="1" fold="1" page="1" pageScale="1" pageWidth="827" pageHeight="1169" math="0" shadow="0">
      <root>
        <mxCell id="0" />
        <mxCell id="1" parent="0" />
        <mxCell id="Os6jdCJYwwGjokP8nPNj-1" value="" style="rounded=0;whiteSpace=wrap;html=1;" vertex="1" parent="1">
          <mxGeometry x="100" y="180" width="340" height="90" as="geometry" />
        </mxCell>
        <mxCell id="Os6jdCJYwwGjokP8nPNj-2" value="Hero / call to action (flex)" style="text;html=1;strokeColor=none;fillColor=none;align=center;verticalAlign=middle;whiteSpace=wrap;rounded=0;" vertex="1" parent="1">
          <mxGeometry x="240" y="200" width="60" height="30" as="geometry" />
        </mxCell>
        <mxCell id="Os6jdCJYwwGjokP8nPNj-4" value="" style="rounded=0;whiteSpace=wrap;html=1;" vertex="1" parent="1">
          <mxGeometry x="100" y="270" width="340" height="80" as="geometry" />
        </mxCell>
        <mxCell id="Os6jdCJYwwGjokP8nPNj-5" value="info about&amp;nbsp; drinks with buzzwords" style="text;html=1;strokeColor=none;fillColor=none;align=center;verticalAlign=middle;whiteSpace=wrap;rounded=0;" vertex="1" parent="1">
          <mxGeometry x="354" y="295" width="60" height="30" as="geometry" />
        </mxCell>
        <mxCell id="Os6jdCJYwwGjokP8nPNj-6" value="fruit drink img" style="rhombus;whiteSpace=wrap;html=1;" vertex="1" parent="1">
          <mxGeometry x="140" y="270" width="80" height="80" as="geometry" />
        </mxCell>
        <mxCell id="Os6jdCJYwwGjokP8nPNj-7" value="Nav Links (hamburger style in small views)" style="rounded=0;whiteSpace=wrap;html=1;" vertex="1" parent="1">
          <mxGeometry x="100" y="140" width="340" height="40" as="geometry" />
        </mxCell>
        <mxCell id="Os6jdCJYwwGjokP8nPNj-8" value="logo" style="rhombus;whiteSpace=wrap;html=1;" vertex="1" parent="1">
          <mxGeometry x="100" y="140" width="40" height="40" as="geometry" />
        </mxCell>
        <mxCell id="Os6jdCJYwwGjokP8nPNj-9" value="" style="rounded=0;whiteSpace=wrap;html=1;" vertex="1" parent="1">
          <mxGeometry x="100" y="350" width="340" height="80" as="geometry" />
        </mxCell>
        <mxCell id="Os6jdCJYwwGjokP8nPNj-10" value="food truck info" style="text;html=1;strokeColor=none;fillColor=none;align=center;verticalAlign=middle;whiteSpace=wrap;rounded=0;" vertex="1" parent="1">
          <mxGeometry x="150" y="375" width="60" height="30" as="geometry" />
        </mxCell>
        <mxCell id="Os6jdCJYwwGjokP8nPNj-11" value="food truck picture" style="rhombus;whiteSpace=wrap;html=1;" vertex="1" parent="1">
          <mxGeometry x="344" y="350" width="80" height="80" as="geometry" />
        </mxCell>
        <mxCell id="Os6jdCJYwwGjokP8nPNj-12" value="img&lt;br&gt;txt&lt;br&gt;img&lt;br&gt;txt in mobile view" style="text;html=1;strokeColor=none;fillColor=none;align=center;verticalAlign=middle;whiteSpace=wrap;rounded=0;" vertex="1" parent="1">
          <mxGeometry x="10" y="375" width="60" height="30" as="geometry" />
        </mxCell>
        <mxCell id="Os6jdCJYwwGjokP8nPNj-13" value="" style="rounded=0;whiteSpace=wrap;html=1;" vertex="1" parent="1">
          <mxGeometry x="100" y="430" width="340" height="80" as="geometry" />
        </mxCell>
        <mxCell id="Os6jdCJYwwGjokP8nPNj-14" value="S. Cali coast text" style="text;html=1;strokeColor=none;fillColor=none;align=center;verticalAlign=middle;whiteSpace=wrap;rounded=0;" vertex="1" parent="1">
          <mxGeometry x="354" y="455" width="60" height="30" as="geometry" />
        </mxCell>
        <mxCell id="Os6jdCJYwwGjokP8nPNj-15" value="South Cali Coast" style="rhombus;whiteSpace=wrap;html=1;" vertex="1" parent="1">
          <mxGeometry x="240" y="430" width="80" height="80" as="geometry" />
        </mxCell>
        <mxCell id="Os6jdCJYwwGjokP8nPNj-16" value="you&#39;ve made x drinks so far" style="text;html=1;strokeColor=none;fillColor=none;align=center;verticalAlign=middle;whiteSpace=wrap;rounded=0;" vertex="1" parent="1">
          <mxGeometry x="180" y="240" width="180" height="30" as="geometry" />
        </mxCell>
        <mxCell id="Os6jdCJYwwGjokP8nPNj-18" value="Carlsbad weather" style="text;html=1;strokeColor=none;fillColor=none;align=center;verticalAlign=middle;whiteSpace=wrap;rounded=0;" vertex="1" parent="1">
          <mxGeometry x="150" y="455" width="60" height="30" as="geometry" />
        </mxCell>
        <mxCell id="Os6jdCJYwwGjokP8nPNj-19" value="Background - fruits" style="rhombus;whiteSpace=wrap;html=1;" vertex="1" parent="1">
          <mxGeometry x="110" y="185" width="80" height="80" as="geometry" />
        </mxCell>
        <mxCell id="Os6jdCJYwwGjokP8nPNj-20" value="Footer - about us, last updated, project &amp;amp; dev info, social links on top" style="rounded=0;whiteSpace=wrap;html=1;" vertex="1" parent="1">
          <mxGeometry x="100" y="510" width="340" height="40" as="geometry" />
        </mxCell>
      </root>
    </mxGraphModel>
  </diagram>
  <diagram id="DxxB-BdSmPTj96N3fVD0" name="Fresh">
    <mxGraphModel dx="1348" dy="613" grid="1" gridSize="10" guides="1" tooltips="1" connect="1" arrows="1" fold="1" page="1" pageScale="1" pageWidth="827" pageHeight="1169" math="0" shadow="0">
      <root>
        <mxCell id="0" />
        <mxCell id="1" parent="0" />
        <mxCell id="cSAWwaannqWveuFrvtVB-1" value="" style="rounded=0;whiteSpace=wrap;html=1;" vertex="1" parent="1">
          <mxGeometry x="50" y="160" width="200" height="280" as="geometry" />
        </mxCell>
        <mxCell id="cSAWwaannqWveuFrvtVB-2" value="Form questions&lt;br&gt;First Name&lt;br&gt;Email&lt;br&gt;Phone&lt;br&gt;3 Elements from JSON&lt;br&gt;Special Instructions" style="rounded=0;whiteSpace=wrap;html=1;" vertex="1" parent="1">
          <mxGeometry x="90" y="180" width="120" height="220" as="geometry" />
        </mxCell>
        <mxCell id="cSAWwaannqWveuFrvtVB-3" value="Make my drink!" style="rounded=0;whiteSpace=wrap;html=1;" vertex="1" parent="1">
          <mxGeometry x="90" y="380" width="120" height="60" as="geometry" />
        </mxCell>
        <mxCell id="cSAWwaannqWveuFrvtVB-4" value="Your order here:&amp;nbsp;&lt;br&gt;Nutrition facts, name, etc." style="rounded=0;whiteSpace=wrap;html=1;" vertex="1" parent="1">
          <mxGeometry x="270" y="160" width="200" height="280" as="geometry" />
        </mxCell>
        <mxCell id="cSAWwaannqWveuFrvtVB-5" value="Flex page - scrolls down to nutritional info on phones" style="text;html=1;strokeColor=none;fillColor=none;align=center;verticalAlign=middle;whiteSpace=wrap;rounded=0;" vertex="1" parent="1">
          <mxGeometry x="-20" y="300" width="60" height="30" as="geometry" />
        </mxCell>
      </root>
    </mxGraphModel>
  </diagram>
  <diagram id="bjMDEh7TTGVUYfgCLvJJ" name="About Us">
    <mxGraphModel dx="521" dy="613" grid="1" gridSize="10" guides="1" tooltips="1" connect="1" arrows="1" fold="1" page="1" pageScale="1" pageWidth="827" pageHeight="1169" math="0" shadow="0">
      <root>
        <mxCell id="0" />
        <mxCell id="1" parent="0" />
        <mxCell id="sX_isvU36X-0GRFYT0p9-1" value="" style="rounded=0;whiteSpace=wrap;html=1;" vertex="1" parent="1">
          <mxGeometry x="100" y="160" width="320" height="400" as="geometry" />
        </mxCell>
        <mxCell id="sX_isvU36X-0GRFYT0p9-2" value="Where it all begain iframe google map" style="rhombus;whiteSpace=wrap;html=1;" vertex="1" parent="1">
          <mxGeometry x="130" y="250" width="100" height="90" as="geometry" />
        </mxCell>
        <mxCell id="sX_isvU36X-0GRFYT0p9-3" value="Historical info with cute headers, and floated images, call to action at the bottom" style="text;html=1;strokeColor=none;fillColor=none;align=center;verticalAlign=middle;whiteSpace=wrap;rounded=0;" vertex="1" parent="1">
          <mxGeometry x="260" y="280" width="60" height="30" as="geometry" />
        </mxCell>
      </root>
    </mxGraphModel>
  </diagram>
</mxfile>
